HIERARCHY
ROOT Hips
{
	OFFSET -0.001795 -0.223333 0.028219
	CHANNELS 6 Xposition Yposition Zposition Zrotation Yrotation Xrotation 
	JOINT LeftUpLeg
	{
		OFFSET 0.069520 -0.091406 -0.006815
		CHANNELS 3 Zrotation Yrotation Xrotation
		JOINT LeftLeg
		{
			OFFSET 0.034277 -0.375199 -0.004496
			CHANNELS 3 Zrotation Yrotation Xrotation
			JOINT LeftFoot
			{
				OFFSET -0.013596 -0.397961 -0.043693
				CHANNELS 3 Zrotation Yrotation Xrotation
				JOINT LeftToe
				{
					OFFSET 0.026358 -0.055791 0.119288
					CHANNELS 3 Zrotation Yrotation Xrotation
					End Site
					{
						OFFSET 0.000000 0.000000 0.000000
					}
				}
			}
		}
	}
	JOINT RightUpLeg
	{
		OFFSET -0.067670 -0.090522 -0.004320
		CHANNELS 3 Zrotation Yrotation Xrotation
		JOINT RightLeg
		{
			OFFSET -0.038290 -0.382569 -0.008850
			CHANNELS 3 Zrotation Yrotation Xrotation
			JOINT RightFoot
			{
				OFFSET 0.015774 -0.398415 -0.042312
				CHANNELS 3 Zrotation Yrotation Xrotation
				JOINT RightToe
				{
					OFFSET -0.025372 -0.048144 0.123348
					CHANNELS 3 Zrotation Yrotation Xrotation
					End Site
					{
						OFFSET 0.000000 0.000000 0.000000
					}
				}
			}
		}
	}
	JOINT Spine
	{
		OFFSET -0.002533 0.108963 -0.026696
		CHANNELS 3 Zrotation Yrotation Xrotation
		JOINT Spine1
		{
			OFFSET 0.005487 0.135180 0.001092
			CHANNELS 3 Zrotation Yrotation Xrotation
			JOINT Spine2
			{
				OFFSET 0.001457 0.052922 0.025425
				CHANNELS 3 Zrotation Yrotation Xrotation
				JOINT Neck
				{
					OFFSET -0.002778 0.213870 -0.042857
					CHANNELS 3 Zrotation Yrotation Xrotation
					JOINT Head
					{
						OFFSET 0.005152 0.064970 0.051349
						CHANNELS 3 Zrotation Yrotation Xrotation
						End Site
						{
							OFFSET 0.000000 0.000000 0.000000
						}
					}
				}
				JOINT LeftShoulder
				{
					OFFSET 0.078845 0.121749 -0.034090
					CHANNELS 3 Zrotation Yrotation Xrotation
					JOINT LeftArm
					{
						OFFSET 0.090977 0.030469 -0.008868
						CHANNELS 3 Zrotation Yrotation Xrotation
						JOINT LeftForeArm
						{
							OFFSET 0.259612 -0.012772 -0.027456
							CHANNELS 3 Zrotation Yrotation Xrotation
							JOINT LeftHand
							{
								OFFSET 0.249234 0.008986 -0.001171
								CHANNELS 3 Zrotation Yrotation Xrotation
								End Site
								{
									OFFSET 0.000000 0.000000 0.000000
								}
							}
						}
					}
				}
				JOINT RightShoulder
				{
					OFFSET -0.081759 0.118833 -0.038615
					CHANNELS 3 Zrotation Yrotation Xrotation
					JOINT RightArm
					{
						OFFSET -0.096012 0.032551 -0.009143
						CHANNELS 3 Zrotation Yrotation Xrotation
						JOINT RightForeArm
						{
							OFFSET -0.253742 -0.013329 -0.021401
							CHANNELS 3 Zrotation Yrotation Xrotation
							JOINT RightHand
							{
								OFFSET -0.255298 0.007772 -0.005559
								CHANNELS 3 Zrotation Yrotation Xrotation
								End Site
								{
									OFFSET 0.000000 0.000000 0.000000
								}
							}
						}
					}
				}
			}
		}
	}
}
MOTION
Frames: 6
Frame Time: 0.050000
0.076592 0.964678 -0.002325 -1.609109 -1.250257 5.839750 0.802751 -0.703956 -8.200317 0.667475 -0.149758 1.959179 -9.130533 -10.792119 12.426913 0.000000 0.000000 0.000000 -3.019237 0.736357 -8.340608 -1.497374 0.332376 3.348732 -1.453197 -9.104363 16.628802 0.000000 0.000000 0.000000 -0.910069 0.132166 -3.113422 -1.333025 0.672508 -4.578291 1.401011 0.995392 0.360151 4.913357 -1.906611 -14.536718 0.000000 0.000000 0.000000 -14.694257 -2.445872 -0.305611 -58.372227 5.870646 -9.380155 -0.375117 -22.484578 0.896159 0.000000 0.000000 0.000000 7.908912 8.963934 3.026477 31.634341 46.852957 8.883221 -73.852482 11.959831 -6.474005 0.000000 0.000000 0.000000 
0.075959 0.964284 -0.002090 -1.221376 -1.243799 5.732698 0.313246 -0.777276 -8.767766 0.644355 -0.213955 3.703614 -8.442923 -10.474835 10.989663 0.000000 0.000000 0.000000 -3.330409 0.742736 -8.586496 -1.704382 0.418606 4.395576 -1.364414 -8.685719 15.545990 0.000000 0.000000 0.000000 -1.254936 0.114583 -2.563635 -1.647207 0.803055 -4.079175 1.641503 1.080331 -0.756900 4.317661 -1.579977 -14.035485 0.000000 0.000000 0.000000 -14.879854 -2.126170 -0.510972 -58.851681 6.325870 -9.585111 0.489102 -23.388905 0.742815 0.000000 0.000000 0.000000 7.249034 8.826025 2.958373 32.852893 46.600013 9.365342 -76.834748 10.275993 -5.625965 0.000000 0.000000 0.000000 
0.074532 0.963402 -0.001987 -0.837559 -1.609737 5.641955 -0.234301 -0.822773 -8.946369 0.391700 -0.210062 4.635515 -7.129365 -8.915764 9.742484 0.000000 0.000000 0.000000 -3.662179 0.796937 -9.498613 -1.826519 0.530539 6.014138 -1.250336 -8.430758 15.089215 0.000000 0.000000 0.000000 -1.346596 0.108547 -2.331164 -1.963196 0.933618 -3.826122 1.310664 1.104077 -1.239162 4.393661 -1.766952 -12.818697 0.000000 0.000000 0.000000 -15.312821 -2.564531 -0.329220 -58.806836 6.282321 -9.507345 0.908506 -22.210448 0.621124 0.000000 0.000000 0.000000 7.217465 9.167714 3.085711 33.285084 47.376042 9.800404 -81.153246 13.198215 -8.522698 0.000000 0.000000 0.000000 
0.071767 0.963147 -0.001651 -0.436840 -3.029238 5.135915 -0.503124 -0.779835 -8.323076 0.317290 -0.197859 4.781071 -6.614844 -8.226251 9.581887 0.000000 0.000000 0.000000 -4.263381 0.807365 -9.872717 -1.324610 0.526874 7.224146 -0.781419 -7.637696 14.421759 0.000000 0.000000 0.000000 -1.228611 0.087766 -1.688364 -2.662339 1.220546 -4.021749 1.281299 1.309830 -1.193922 4.198685 -1.744200 -12.353681 0.000000 0.000000 0.000000 -15.854588 -2.765830 -0.158739 -59.227739 6.824193 -9.848831 1.870433 -21.400694 0.443403 0.000000 0.000000 0.000000 7.368925 10.047509 3.389764 33.871662 48.373888 10.299722 -87.016473 21.009512 -16.777547 0.000000 0.000000 0.000000 
0.067212 0.962623 -0.001085 -0.290022 -3.509146 5.057773 -0.578194 -0.756521 -8.026963 0.170709 -0.160429 4.375804 -5.787368 -6.717611 9.721948 0.000000 0.000000 0.000000 -4.344069 0.818702 -10.022218 -1.216406 0.549676 7.878759 -0.347280 -6.590996 13.349866 0.000000 0.000000 0.000000 -1.271563 0.096255 -1.918108 -2.622060 1.201832 -3.695143 0.672070 1.076021 -1.270894 4.860577 -2.218889 -12.007024 0.000000 0.000000 0.000000 -16.189169 -2.798557 -0.101188 -59.085937 6.496998 -9.649349 1.565497 -20.692274 0.495113 0.000000 0.000000 0.000000 6.557419 11.221983 3.844352 32.903512 47.680206 9.682189 -96.191708 33.267683 -32.858037 0.000000 0.000000 0.000000 
0.060603 0.961879 -0.000374 0.158804 -4.336039 4.962167 -0.898092 -0.730046 -7.563288 0.355085 -0.163482 3.672588 -5.264006 -5.655723 10.171255 0.000000 0.000000 0.000000 -4.816130 0.828918 -10.347206 -1.244292 0.620423 8.885347 0.712403 -4.189527 11.882258 0.000000 0.000000 0.000000 -1.449635 0.099716 -1.929037 -2.946160 1.339470 -3.407314 0.492535 1.035241 -1.142659 5.162599 -2.411898 -12.239134 0.000000 0.000000 0.000000 -16.599719 -3.522912 0.339008 -59.285678 5.599776 -9.258812 1.457226 -19.511632 0.499801 0.000000 0.000000 0.000000 5.422905 12.539133 4.333589 31.440347 49.152340 9.474369 -105.069080 43.292613 -50.260911 0.000000 0.000000 0.000000 
